# xmcd
#
# Track frame offsets:
#	150
#	31789
#	54167
#	86845
#	107893
#	135499
#	158728
#	186935
#
# Disc length: 2760 seconds
#
# Revision: 1
# Processed by: cddbd v1.5.2PL0 Copyright (c) Steve Scherf et al.
# Submitted via: audiograbber 1.83.01
#
DISCID=5e0ac608
DTITLE=Blues Ltd. - Eight After Eight
DYEAR=2010
DGENRE=Blues
TTITLE0=Help Me
TTITLE1=Sensitive Kind
TTITLE2=You Don´t Know
TTITLE3=It´s All Over Now Baby Blue
TTITLE4=I Loved Another Woman
TTITLE5=A Fool For Your Stockings
TTITLE6=Darker Side
TTITLE7=See See Baby
EXTD=
EXTT0=
EXTT1=
EXTT2=
EXTT3=
EXTT4=
EXTT5=
EXTT6=
EXTT7=
PLAYORDER=
